<svg width="22" height="22" viewBox="0 0 22 22" fill="none" xmlns="http://www.w3.org/2000/svg">
<path fill-rule="evenodd" clip-rule="evenodd" d="M21.3889 0.611111H0.611111V21.3889H21.3889V0.611111ZM0 0V22H22V0H0Z" fill="white"/>
<path d="M10.3204 16.5H3.48578V15.2387L6.90311 12.1587C7.40178 11.7089 7.81244 11.2493 8.13511 10.78C8.45778 10.3009 8.61911 9.79733 8.61911 9.26933V9.09333C8.61911 8.47733 8.45778 8.00311 8.13511 7.67067C7.81244 7.32844 7.33333 7.15733 6.69778 7.15733C6.072 7.15733 5.588 7.31867 5.24578 7.64133C4.91333 7.95422 4.664 8.37467 4.49778 8.90267L3.39778 8.492C3.49556 8.18889 3.62756 7.89555 3.79378 7.612C3.96978 7.31867 4.18978 7.05955 4.45378 6.83467C4.71778 6.60978 5.03556 6.42889 5.40711 6.292C5.78844 6.15511 6.22844 6.08667 6.72711 6.08667C7.23556 6.08667 7.68533 6.16 8.07644 6.30667C8.47733 6.45333 8.80978 6.65867 9.07378 6.92267C9.34756 7.18667 9.55289 7.49955 9.68978 7.86133C9.83644 8.22311 9.90978 8.61911 9.90978 9.04933C9.90978 9.44044 9.85111 9.80711 9.73378 10.1493C9.62622 10.4916 9.46978 10.8191 9.26444 11.132C9.06889 11.4449 8.82933 11.7529 8.54578 12.056C8.272 12.3493 7.964 12.6427 7.62178 12.936L4.76178 15.4293H10.3204V16.5Z" fill="white"/>
<path d="M18.3814 16.5H11.5467V15.2387L14.964 12.1587C15.4627 11.7089 15.8734 11.2493 16.196 10.78C16.5187 10.3009 16.6801 9.79733 16.6801 9.26933V9.09333C16.6801 8.47733 16.5187 8.00311 16.196 7.67067C15.8734 7.32844 15.3943 7.15733 14.7587 7.15733C14.1329 7.15733 13.6489 7.31867 13.3067 7.64133C12.9743 7.95422 12.7249 8.37467 12.5587 8.90267L11.4587 8.492C11.5565 8.18889 11.6885 7.89555 11.8547 7.612C12.0307 7.31867 12.2507 7.05955 12.5147 6.83467C12.7787 6.60978 13.0965 6.42889 13.4681 6.292C13.8494 6.15511 14.2894 6.08667 14.788 6.08667C15.2965 6.08667 15.7463 6.16 16.1374 6.30667C16.5383 6.45333 16.8707 6.65867 17.1347 6.92267C17.4085 7.18667 17.6138 7.49955 17.7507 7.86133C17.8974 8.22311 17.9707 8.61911 17.9707 9.04933C17.9707 9.44044 17.912 9.80711 17.7947 10.1493C17.6872 10.4916 17.5307 10.8191 17.3254 11.132C17.1298 11.4449 16.8903 11.7529 16.6067 12.056C16.3329 12.3493 16.0249 12.6427 15.6827 12.936L12.8227 15.4293H18.3814V16.5Z" fill="white"/>
</svg>
