<svg width="47" height="17" viewBox="0 0 47 17" fill="none" xmlns="http://www.w3.org/2000/svg">
<path d="M22.7227 12.4883V17H0.714844V16.6836C0.714844 15.1602 1.01172 13.8203 1.60547 12.6641C2.19922 11.5078 2.96875 10.5977 3.91406 9.93359C4.85938 9.26953 5.90625 8.71094 7.05469 8.25781C8.21094 7.79688 9.35938 7.46094 10.5 7.25C11.6406 7.03125 12.6836 6.85156 13.6289 6.71094C14.5742 6.5625 15.3438 6.41016 15.9375 6.25391C16.5312 6.08984 16.8281 5.88672 16.8281 5.64453C16.8281 5.19922 16.5977 4.93359 16.1367 4.84766C15.6836 4.75391 14.4492 4.70703 12.4336 4.70703H9.62109C8.67578 4.70703 8.02734 4.80078 7.67578 4.98828C7.32422 5.17578 7.09375 5.51562 6.98438 6.00781H1.24219C1.38281 5.01562 1.58203 4.19141 1.83984 3.53516C2.09766 2.87891 2.60547 2.16016 3.36328 1.37891C4.12109 0.589844 5.76953 0.195312 8.30859 0.195312H14.7305C18.3477 0.195312 20.5078 0.75 21.2109 1.85938C21.9219 2.96094 22.3281 3.74609 22.4297 4.21484C22.5312 4.67578 22.582 5.1875 22.582 5.75C22.582 6.30469 22.4844 6.80859 22.2891 7.26172C22.1016 7.70703 21.5938 8.3125 20.7656 9.07812C19.9375 9.84375 18.4531 10.3477 16.3125 10.5898C14.1719 10.832 12.9844 10.9727 12.75 11.0117C12.5234 11.0508 11.8828 11.1602 10.8281 11.3398C9.77344 11.5117 9.13281 11.8945 8.90625 12.4883H22.7227ZM46.4414 12.4883V17H24.4336V16.6836C24.4336 15.1602 24.7305 13.8203 25.3242 12.6641C25.918 11.5078 26.6875 10.5977 27.6328 9.93359C28.5781 9.26953 29.625 8.71094 30.7734 8.25781C31.9297 7.79688 33.0781 7.46094 34.2188 7.25C35.3594 7.03125 36.4023 6.85156 37.3477 6.71094C38.293 6.5625 39.0625 6.41016 39.6562 6.25391C40.25 6.08984 40.5469 5.88672 40.5469 5.64453C40.5469 5.19922 40.3164 4.93359 39.8555 4.84766C39.4023 4.75391 38.168 4.70703 36.1523 4.70703H33.3398C32.3945 4.70703 31.7461 4.80078 31.3945 4.98828C31.043 5.17578 30.8125 5.51562 30.7031 6.00781H24.9609C25.1016 5.01562 25.3008 4.19141 25.5586 3.53516C25.8164 2.87891 26.3242 2.16016 27.082 1.37891C27.8398 0.589844 29.4883 0.195312 32.0273 0.195312H38.4492C42.0664 0.195312 44.2266 0.75 44.9297 1.85938C45.6406 2.96094 46.0469 3.74609 46.1484 4.21484C46.25 4.67578 46.3008 5.1875 46.3008 5.75C46.3008 6.30469 46.2031 6.80859 46.0078 7.26172C45.8203 7.70703 45.3125 8.3125 44.4844 9.07812C43.6562 9.84375 42.1719 10.3477 40.0312 10.5898C37.8906 10.832 36.7031 10.9727 36.4688 11.0117C36.2422 11.0508 35.6016 11.1602 34.5469 11.3398C33.4922 11.5117 32.8516 11.8945 32.625 12.4883H46.4414Z" fill="white"/>
</svg>
