<svg width="36" height="36" viewBox="0 0 36 36" fill="none" xmlns="http://www.w3.org/2000/svg">
<rect x="2" y="2" width="32" height="32" rx="6" fill="#000911"/>
<path d="M12.3516 12.7539C12.3516 11.9792 12.3424 11.3047 12.3242 10.7305C12.306 10.1471 12.2786 9.64583 12.2422 9.22656C12.2057 8.79818 12.1602 8.44271 12.1055 8.16016C12.0599 7.8776 12.0098 7.64062 11.9551 7.44922V7.39453C12.1374 7.40365 12.3288 7.4082 12.5293 7.4082C12.7025 7.41732 12.8939 7.42188 13.1035 7.42188C13.3223 7.42188 13.5456 7.42188 13.7734 7.42188C14.1016 7.42188 14.5436 7.38997 15.0996 7.32617C15.6647 7.26237 16.3893 7.23047 17.2734 7.23047C18.0938 7.23047 18.8503 7.33984 19.543 7.55859C20.2357 7.76823 20.8327 8.07357 21.334 8.47461C21.8444 8.87565 22.2409 9.3724 22.5234 9.96484C22.8151 10.5482 22.9609 11.2135 22.9609 11.9609C22.9609 12.5898 22.8743 13.1549 22.7012 13.6562C22.528 14.1484 22.2819 14.5814 21.9629 14.9551C21.653 15.3197 21.2747 15.6296 20.8281 15.8848C20.3906 16.1309 19.9076 16.3268 19.3789 16.4727C20.1536 16.5911 20.86 16.7917 21.498 17.0742C22.1361 17.3477 22.6829 17.694 23.1387 18.1133C23.6035 18.5326 23.959 19.0247 24.2051 19.5898C24.4603 20.1458 24.5879 20.7656 24.5879 21.4492C24.5879 23.3724 23.9544 24.8171 22.6875 25.7832C21.4206 26.7402 19.5247 27.2188 17 27.2188C16.7266 27.2188 16.4076 27.2051 16.043 27.1777C15.6784 27.1595 15.3047 27.1367 14.9219 27.1094C14.5482 27.082 14.179 27.0547 13.8145 27.0273C13.4499 27.0091 13.1309 27 12.8574 27H11.9551V26.9453C12.0098 26.7539 12.0599 26.5169 12.1055 26.2344C12.1602 25.9518 12.2057 25.6009 12.2422 25.1816C12.2786 24.7624 12.306 24.2656 12.3242 23.6914C12.3424 23.1081 12.3516 22.429 12.3516 21.6543V12.7539ZM17.3691 17.3066C16.7493 17.3066 16.2298 17.3294 15.8105 17.375C15.3913 17.4206 15.0677 17.4661 14.8398 17.5117V21.6543C14.8398 22.7207 14.8581 23.6003 14.8945 24.293C14.931 24.9857 14.9811 25.5508 15.0449 25.9883C15.3913 26.0339 15.7376 26.0749 16.084 26.1113C16.4303 26.1478 16.7083 26.166 16.918 26.166C18.6224 26.166 19.8665 25.7878 20.6504 25.0312C21.4434 24.2656 21.8398 23.0944 21.8398 21.5176C21.8398 20.8978 21.7441 20.3327 21.5527 19.8223C21.3704 19.3027 21.0924 18.8561 20.7188 18.4824C20.3542 18.1087 19.8893 17.8216 19.3242 17.6211C18.7682 17.4115 18.1165 17.3066 17.3691 17.3066ZM14.8398 16.2812C15.0951 16.3086 15.3229 16.3268 15.5234 16.3359C15.724 16.3359 15.9382 16.3359 16.166 16.3359C16.7858 16.3359 17.3509 16.2493 17.8613 16.0762C18.3717 15.8939 18.8047 15.625 19.1602 15.2695C19.5247 14.9141 19.8073 14.472 20.0078 13.9434C20.2083 13.4056 20.3086 12.7812 20.3086 12.0703C20.3086 11.4779 20.2357 10.9401 20.0898 10.457C19.944 9.97396 19.7253 9.5638 19.4336 9.22656C19.151 8.88021 18.8001 8.61589 18.3809 8.43359C17.9616 8.2513 17.4831 8.16016 16.9453 8.16016C16.599 8.16016 16.2936 8.17383 16.0293 8.20117C15.7741 8.22852 15.5553 8.26042 15.373 8.29688C15.1634 8.33333 14.9857 8.37891 14.8398 8.43359V16.2812Z" fill="#CF9763"/>
</svg>
